<?xml version="1.0" encoding="UTF-8" standalone="no"?>

<svg
   xmlns:dc="http://purl.org/dc/elements/1.1/"
   xmlns:cc="http://creativecommons.org/ns#"
   xmlns:rdf="http://www.w3.org/1999/02/22-rdf-syntax-ns#"
   xmlns:svg="http://www.w3.org/2000/svg"
   xmlns="http://www.w3.org/2000/svg"
   xmlns:sodipodi="http://sodipodi.sourceforge.net/DTD/sodipodi-0.dtd"
   xmlns:inkscape="http://www.inkscape.org/namespaces/inkscape"
   version="1.1"
   x="0px"
   y="0px"
   width="120px"
   height="120px"
   viewBox="0 0 120 120"
   enable-background="new 0 0 120 120"
   xml:space="preserve"
   id="svg2"
   inkscape:version="0.48.4 r9939"
   sodipodi:docname="DRM-free label.en.svg"><metadata
     id="metadata32"><rdf:RDF><cc:Work
         rdf:about=""><dc:format>image/svg+xml</dc:format><dc:type
           rdf:resource="http://purl.org/dc/dcmitype/StillImage" /><dc:title /></cc:Work></rdf:RDF></metadata><defs
     id="defs30" /><sodipodi:namedview
     pagecolor="#ffffff"
     bordercolor="#666666"
     borderopacity="1"
     objecttolerance="10"
     gridtolerance="10"
     guidetolerance="10"
     inkscape:pageopacity="0"
     inkscape:pageshadow="2"
     inkscape:window-width="640"
     inkscape:window-height="480"
     id="namedview28"
     showgrid="false"
     inkscape:zoom="1.9666667"
     inkscape:cx="60.000002"
     inkscape:cy="60.000002"
     inkscape:window-x="0"
     inkscape:window-y="27"
     inkscape:window-maximized="0"
     inkscape:current-layer="g5" /><g
     id="Reverse_Logos"
     style="stroke:none"><g
       id="g5"
       style="stroke:none;fill:#000000"><path
         fill="none"
         stroke="#FFFFFF"
         stroke-width="2.7423"
         stroke-miterlimit="10"
         d="M85.961,97.259    c-7.566,5.27-16.65,8.136-25.977,8.136c-12.141,0-23.545-4.716-32.105-13.276c-8.066-8.067-12.768-18.801-13.236-30.225    c-0.41-10.01,2.449-19.757,8.1-27.855l-9.15-9.15C5.529,35.529,1.371,48.606,1.85,62.103c0.525,14.766,6.555,28.639,16.982,39.064    c10.975,10.975,25.586,17.02,41.146,17.02c12.734,0,25.072-4.168,35.131-11.779L85.961,97.259z"
         id="path7"
         style="stroke:#000000;fill:none" /><path
         fill="none"
         stroke="#FFFFFF"
         stroke-width="2.7423"
         stroke-miterlimit="10"
         d="M33.031,23.474    c7.764-5.732,17.238-8.869,26.982-8.869c12.143,0,23.545,4.714,32.105,13.274c8.066,8.067,12.77,18.802,13.236,30.226    c0.43,10.432-2.699,20.572-8.83,28.865l9.127,9.126c8.561-10.813,12.99-24.286,12.498-38.2    c-0.525-14.765-6.557-28.639-16.982-39.064C90.193,7.856,75.58,1.813,60.021,1.813c-13.152,0-25.887,4.438-36.117,12.533    L33.031,23.474z"
         id="path9"
         style="stroke:#000000;fill:none" /><g
         id="g11"
         style="stroke:none;fill:#000000"><path
           fill="#FFFFFF"
           d="M28.188,35.055h7.219c1.854,0,3.553,0.226,5.095,0.677s2.863,1.166,3.967,2.143     c1.103,0.978,1.961,2.231,2.575,3.76c0.614,1.529,0.921,3.372,0.921,5.527s-0.301,4.01-0.902,5.564s-1.447,2.833-2.537,3.835     c-1.091,1.003-2.382,1.742-3.873,2.218c-1.491,0.477-3.115,0.714-4.869,0.714h-7.595V35.055z M35.031,54.306     c0.877,0,1.704-0.106,2.481-0.32c0.776-0.212,1.447-0.583,2.012-1.109c0.563-0.526,1.009-1.253,1.335-2.181     c0.325-0.927,0.488-2.105,0.488-3.534s-0.163-2.594-0.488-3.497c-0.326-0.903-0.771-1.604-1.335-2.106     c-0.564-0.501-1.235-0.846-2.012-1.034c-0.777-0.188-1.604-0.282-2.481-0.282h-0.376v14.062H35.031z"
           id="path13"
           style="stroke:none;fill:#000000" /><path
           fill="#FFFFFF"
           d="M62.707,59.494l-4.211-8.196h-2.481v8.196h-6.467V35.055h9.249c1.303,0,2.551,0.126,3.741,0.376     c1.19,0.251,2.23,0.677,3.121,1.278c0.889,0.602,1.598,1.41,2.124,2.425s0.789,2.288,0.789,3.816     c0,1.755-0.356,3.209-1.071,4.362c-0.714,1.153-1.673,2.055-2.876,2.707l5.301,9.475H62.707z M56.015,46.185h2.331     c2.606,0,3.91-1.078,3.91-3.234c0-1.053-0.332-1.779-0.996-2.181c-0.664-0.4-1.636-0.602-2.914-0.602h-2.331V46.185z"
           id="path15"
           style="stroke:none;fill:#000000" /><path
           fill="#FFFFFF"
           d="M70.493,35.055h6.692l3.835,10.152l1.354,3.985h0.15l1.354-3.985l3.685-10.152h6.692v24.439h-6.016     v-7.219c0-0.626,0.031-1.316,0.095-2.068c0.062-0.752,0.131-1.523,0.206-2.312s0.163-1.56,0.264-2.312     c0.1-0.752,0.188-1.429,0.263-2.03h-0.15l-2.03,5.715l-3.384,8.234h-2.406l-3.384-8.234l-1.955-5.715h-0.15     c0.075,0.602,0.163,1.278,0.264,2.03c0.1,0.752,0.188,1.522,0.263,2.312s0.145,1.561,0.207,2.312s0.094,1.441,0.094,2.068v7.219     h-5.94V35.055z"
           id="path17"
           style="stroke:none;fill:#000000" /><path
           fill="#FFFFFF"
           d="M27.937,63.56h14.459v4.911h-8.594v4.229h7.366v4.91h-7.366v8.116h-5.865V63.56z"
           id="path19"
           style="stroke:none;fill:#000000" /><path
           fill="#FFFFFF"
           d="M55.531,85.726l-3.819-7.434h-2.251v7.434h-5.865V63.56h8.389c1.182,0,2.313,0.114,3.394,0.341     c1.079,0.227,2.022,0.614,2.83,1.159c0.807,0.545,1.449,1.279,1.927,2.2c0.478,0.92,0.716,2.075,0.716,3.461     c0,1.592-0.323,2.91-0.972,3.956c-0.647,1.046-1.518,1.865-2.608,2.456l4.808,8.593H55.531z M49.461,73.654h2.114     c2.364,0,3.547-0.977,3.547-2.933c0-0.955-0.302-1.614-0.904-1.978s-1.482-0.546-2.643-0.546h-2.114V73.654z"
           id="path21"
           style="stroke:none;fill:#000000" /><path
           fill="#FFFFFF"
           d="M62.627,63.56h14.322v4.911h-8.457v3.478h7.229v4.911h-7.229v3.956h8.798v4.911H62.627V63.56z"
           id="path23"
           style="stroke:none;fill:#000000" /><path
           fill="#FFFFFF"
           d="M79.203,63.56h14.322v4.911h-8.457v3.478h7.229v4.911h-7.229v3.956h8.798v4.911H79.203V63.56z"
           id="path25"
           style="stroke:none;fill:#000000" /></g></g></g><g
     id="Logos"
     style="stroke:#000000" /></svg>
